<svg
    width="166"
    height="166"
    viewBox="0 0 166 166"
    fill="none"
    xmlns="http://www.w3.org/2000/svg"
>
    <defs>
        <linearGradient
            id="bbq-gradient"
            x1="20"
            y1="18"
            x2="148"
            y2="150"
            gradientUnits="userSpaceOnUse"
        >
            <stop stop-color="#F2542D" />
            <stop offset="1" stop-color="#F7B733" />
        </linearGradient>
    </defs>

    <rect
        x="8"
        y="8"
        width="150"
        height="150"
        rx="34"
        fill="url(#bbq-gradient)"
    />
    <path
        d="M42 84H124C121 108 104 126 83 126C62 126 45 108 42 84Z"
        fill="#FFFFFF"
    />
    <path
        d="M36 76H130"
        stroke="#FFFFFF"
        stroke-width="11"
        stroke-linecap="round"
    />
    <path
        d="M59 91H107"
        stroke="#7A2A18"
        stroke-width="7"
        stroke-linecap="round"
        opacity="0.28"
    />
    <path
        d="M67 103H99"
        stroke="#7A2A18"
        stroke-width="7"
        stroke-linecap="round"
        opacity="0.28"
    />
    <path
        d="M75 125L62 146"
        stroke="#FFFFFF"
        stroke-width="9"
        stroke-linecap="round"
    />
    <path
        d="M91 125L105 146"
        stroke="#FFFFFF"
        stroke-width="9"
        stroke-linecap="round"
    />
    <circle cx="112" cy="146" r="8" fill="#FFFFFF" />
    <path
        d="M59 56C53 48 54 39 62 31"
        stroke="#FFFFFF"
        stroke-width="9"
        stroke-linecap="round"
    />
    <path
        d="M83 58C77 49 78 39 87 30"
        stroke="#FFFFFF"
        stroke-width="9"
        stroke-linecap="round"
    />
    <path
        d="M107 56C101 48 102 39 110 31"
        stroke="#FFFFFF"
        stroke-width="9"
        stroke-linecap="round"
    />
</svg>
